<svg width="110" height="38" viewBox="0 0 1 37" fill="none" xmlns="http://www.w3.org/2000/svg"><path fill-rule="evenodd" clip-rule="evenodd" d="M20.5258 15.1169C20.1509 15.1169 19.7845 15.2214 19.4728 15.4172C19.1611 15.6131 18.9182 15.8914 18.7747 16.2171C18.6313 16.5427 18.5937 16.9011 18.6669 17.2468C18.74 17.5925 18.9205 17.9101 19.1856 18.1593C19.4507 18.4086 19.7884 18.5783 20.156 18.6471C20.5237 18.7158 20.9048 18.6805 21.2511 18.5456C21.5975 18.4108 21.8935 18.1823 22.1017 17.8892C22.31 17.5962 22.4212 17.2516 22.4212 16.8991C22.4212 16.4264 22.2215 15.9731 21.866 15.6389C21.5106 15.3047 21.0285 15.1169 20.5258 15.1169ZM20.5258 12.7445C21.3997 12.7445 22.2539 12.9881 22.9805 13.4447C23.7071 13.9012 24.2734 14.55 24.6079 15.3092C24.9423 16.0684 25.0298 16.9037 24.8593 17.7096C24.6888 18.5155 24.268 19.2558 23.6501 19.8369C23.0322 20.4179 22.2449 20.8136 21.3878 20.9739C20.5307 21.1342 19.6423 21.0519 18.835 20.7375C18.0276 20.423 17.3376 19.8905 16.8521 19.2073C16.3666 18.5241 16.1074 17.7208 16.1074 16.8991C16.107 16.3534 16.221 15.813 16.4429 15.3087C16.6648 14.8045 16.9903 14.3464 17.4006 13.9605C17.811 13.5746 18.2982 13.2686 18.8345 13.06C19.3707 12.8513 19.9455 12.7441 20.5258 12.7445Z" fill="#EF3B24"></path><path fill-rule="evenodd" clip-rule="evenodd" d="M21.8029 0H19.6183H19.2337V13.6906H21.8029V2.41581H25.1721V0H21.8029Z" fill="#EF3B24"></path><path fill-rule="evenodd" clip-rule="evenodd" d="M20.763 29.8172C24.9537 29.8172 25.3199 23.5535 20.763 23.5535C16.2062 23.5535 16.52 29.8172 20.763 29.8172Z" fill="#EF3B24"></path><path fill-rule="evenodd" clip-rule="evenodd" d="M8.74127 9.85712C8.74127 12.9239 14.3935 13.0396 13.9966 9.32477C13.6889 6.44605 8.7382 6.26377 8.74127 9.85712Z" fill="#EF3B24"></path><path fill-rule="evenodd" clip-rule="evenodd" d="M8.30762 18.1808C8.30762 21.7712 14.926 21.8985 14.4614 17.5559C14.0829 14.1766 8.28608 13.9712 8.30762 18.1808Z" fill="#EF3B24"></path><path fill-rule="evenodd" clip-rule="evenodd" d="M8.74127 26.9067C8.74127 29.9735 14.3935 30.0892 13.9966 26.3743C13.6889 23.484 8.7382 23.3018 8.74127 26.9067Z" fill="#EF3B24"></path><path fill-rule="evenodd" clip-rule="evenodd" d="M0 18.1461C0 21.21 5.65221 21.3286 5.25529 17.6108C4.94453 14.7321 0 14.5498 0 18.1461Z" fill="#EF3B24"></path><path fill-rule="evenodd" clip-rule="evenodd" d="M17.7355 35.213C17.7355 38.7225 24.1969 38.844 23.7508 34.6026C23.3846 31.3072 17.7293 31.0989 17.7355 35.213Z" fill="#EF3B24"></path><path fill-rule="evenodd" clip-rule="evenodd" d="M30.1196 6.27533C25.5535 6.27533 25.2305 13.0194 30.1196 13.0194C35.0088 13.0194 34.6334 6.27533 30.1196 6.27533Z" fill="#EF3B24"></path><path fill-rule="evenodd" clip-rule="evenodd" d="M30.1193 23.3133C25.5532 23.3133 25.227 30.0573 30.1193 30.0573C35.0115 30.0573 34.633 23.3133 30.1193 23.3133Z" fill="#EF3B24"></path><path fill-rule="evenodd" clip-rule="evenodd" d="M33.2022 18.1808C33.2022 21.7712 26.5808 21.8985 27.0484 17.5559C27.4084 14.1766 33.2053 13.9712 33.2022 18.1808Z" fill="#EF3B24"></path><path fill-rule="evenodd" clip-rule="evenodd" d="M41.513 18.1461C41.513 21.21 35.8608 21.3286 36.2577 17.6108C36.5685 14.7321 41.5191 14.5498 41.513 18.1461Z" fill="#EF3B24"></path><path fill-rule="evenodd" clip-rule="evenodd" d="M54.1247 26.9963C57.1462 26.9963 59.4662 25.6742 59.4662 22.7607V22.7115C59.4662 20.3102 57.1985 19.4278 55.2447 18.8144C53.734 18.3255 52.4048 17.9812 52.4048 17.2463V17.2C52.4048 16.685 52.9002 16.2915 53.8632 16.2915C54.697 16.2915 55.7647 16.6098 56.8847 17.1248C57.1087 17.241 57.3612 17.2998 57.617 17.2955C57.8245 17.2993 58.0308 17.2641 58.2237 17.1919C58.4165 17.1197 58.5921 17.012 58.74 16.875C58.888 16.7381 59.0053 16.5747 59.0851 16.3945C59.1649 16.2143 59.2055 16.0209 59.2047 15.8257C59.2095 15.5345 59.1251 15.2481 58.9614 15.0007C58.7977 14.7534 58.5617 14.5557 58.2816 14.4312C56.9414 13.7896 55.4624 13.4461 53.9586 13.4273C51.1433 13.4273 48.851 14.9202 48.851 17.5906V17.6484C48.851 20.1973 51.0663 21.0537 53.0202 21.5919C54.5586 22.0345 55.9124 22.3036 55.9124 23.1108V23.1455C55.9124 23.7241 55.3893 24.1263 54.2447 24.1263C52.8926 24.0703 51.5831 23.6649 50.4602 22.9546C50.2222 22.8264 49.9526 22.7592 49.6783 22.7598C49.404 22.7603 49.1347 22.8286 48.8973 22.9578C48.6599 23.087 48.4627 23.2726 48.3255 23.4959C48.1884 23.7192 48.116 23.9725 48.1156 24.2305C48.1143 24.486 48.1833 24.7376 48.3159 24.9606C48.4485 25.1837 48.6403 25.3707 48.8725 25.5035C50.4375 26.4658 52.2641 26.984 54.134 26.9963H54.1247ZM66.263 26.9963C68.1922 26.9963 69.5214 26.3367 70.4845 25.3328V25.3559C70.4845 26.14 71.2414 26.898 72.386 26.898C72.638 26.9014 72.8882 26.8577 73.1222 26.7694C73.3561 26.6811 73.569 26.55 73.7485 26.3836C73.928 26.2172 74.0705 26.0189 74.1678 25.8003C74.2651 25.5816 74.3152 25.347 74.3152 25.11V19.1327C74.3152 17.3707 73.8444 15.9241 72.8044 14.9462C71.8137 14.0146 70.2506 13.4765 68.0876 13.4765C66.569 13.4455 65.0576 13.683 63.6323 14.1766C63.3186 14.2865 63.0481 14.4839 62.8573 14.7425C62.6664 15.0011 62.5643 15.3085 62.5646 15.6232C62.5642 15.825 62.6066 16.0248 62.6893 16.211C62.7721 16.3972 62.8935 16.566 63.0466 16.7075C63.1996 16.8489 63.3811 16.9602 63.5805 17.0349C63.7799 17.1095 63.9931 17.146 64.2076 17.1421C64.4031 17.1419 64.597 17.1086 64.7799 17.0438C65.6665 16.7909 66.5889 16.667 67.5153 16.6763C69.4937 16.6763 70.5122 17.5443 70.5122 19.0777V19.2976C69.416 18.9316 68.26 18.7495 67.0968 18.7594C63.7892 18.7594 61.4723 20.0816 61.4723 22.9488V22.998C61.4723 25.6018 63.6261 27.0137 66.263 27.0137V26.9963ZM67.463 24.4243C66.1861 24.4243 65.3092 23.8457 65.3092 22.833V22.7839C65.3092 21.6092 66.3522 20.9698 68.0445 20.9698C68.9151 20.9631 69.7773 21.1308 70.5737 21.4617V22.1213C70.5737 23.4695 69.3214 24.4359 67.4722 24.4359L67.463 24.4243ZM77.7274 25.0377C77.7476 25.5187 77.965 25.9738 78.3341 26.3074C78.7032 26.6411 79.1954 26.8275 79.7074 26.8275C80.2194 26.8275 80.7115 26.6411 81.0806 26.3074C81.4497 25.9738 81.6672 25.5187 81.6873 25.0377V19.4278C81.6873 17.6629 82.6104 16.7573 84.0842 16.7573C85.558 16.7573 86.4011 17.6629 86.4011 19.4278V25.0377C86.4213 25.5187 86.6387 25.9738 87.0078 26.3074C87.3769 26.6411 87.8691 26.8275 88.3811 26.8275C88.8931 26.8275 89.3852 26.6411 89.7543 26.3074C90.1234 25.9738 90.3409 25.5187 90.361 25.0377V19.4278C90.361 17.6629 91.2841 16.7573 92.7579 16.7573C94.2317 16.7573 95.0748 17.6629 95.0748 19.4278V25.0377C95.095 25.5187 95.3124 25.9738 95.6815 26.3074C96.0506 26.6411 96.5428 26.8275 97.0548 26.8275C97.5668 26.8275 98.0589 26.6411 98.428 26.3074C98.7971 25.9738 99.0146 25.5187 99.0347 25.0377V18.2039C99.0347 15.0417 97.2625 13.3781 94.3179 13.3781C92.4164 13.3781 90.958 14.113 89.7334 15.4583C89.0042 14.1361 87.6226 13.3781 85.8011 13.3781C83.795 13.3781 82.595 14.382 81.6843 15.4843V15.3339C81.6641 14.8528 81.4467 14.3978 81.0776 14.0641C80.7084 13.7305 80.2163 13.5441 79.7043 13.5441C79.1923 13.5441 78.7002 13.7305 78.331 14.0641C77.9619 14.3978 77.7445 14.8528 77.7243 15.3339V25.0377H77.7274ZM102.475 25.0377C102.491 25.519 102.706 25.9756 103.073 26.3116C103.44 26.6476 103.931 26.8369 104.443 26.8399C104.955 26.8429 105.448 26.6593 105.82 26.3276C106.191 25.9959 106.412 25.5419 106.435 25.0608V25.0377C106.947 25.6609 107.607 26.1628 108.363 26.5029C109.118 26.843 109.948 27.012 110.785 26.9963C114.096 26.9963 117.142 24.5979 117.142 20.2118V20.1626C117.142 15.7766 114.044 13.3781 110.785 13.3781C108.727 13.3781 107.401 14.2837 106.435 15.5075V10.5891C106.445 10.3384 106.402 10.0883 106.307 9.85382C106.212 9.61932 106.068 9.40523 105.883 9.22438C105.698 9.04354 105.476 8.89966 105.231 8.80138C104.985 8.7031 104.721 8.65244 104.455 8.65244C104.188 8.65244 103.924 8.7031 103.678 8.80138C103.433 8.89966 103.211 9.04354 103.026 9.22438C102.841 9.40523 102.697 9.61932 102.602 9.85382C102.508 10.0883 102.464 10.3384 102.475 10.5891V25.055V25.0377ZM109.77 23.837C107.924 23.837 106.385 22.3904 106.385 20.2118V20.1626C106.385 17.9812 107.924 16.5375 109.77 16.5375C111.616 16.5375 113.182 17.9841 113.182 20.1626V20.2118C113.182 22.4164 111.619 23.837 109.77 23.837ZM123.265 19.1587C123.573 17.4691 124.647 16.3668 126.287 16.3668C127.927 16.3668 128.997 17.4922 129.231 19.1587H123.265ZM131.523 25.4601C131.688 25.3216 131.82 25.1517 131.91 24.9616C131.999 24.7715 132.045 24.5657 132.043 24.3578C132.045 24.0835 131.965 23.8144 131.812 23.5807C131.659 23.347 131.44 23.158 131.18 23.035C130.919 22.912 130.627 22.8599 130.337 22.8846C130.046 22.9092 129.769 23.0096 129.536 23.1744C128.729 23.7551 127.739 24.0657 126.723 24.0569C124.951 24.0569 123.702 23.1744 123.311 21.4848H131.151C131.4 21.4908 131.648 21.4482 131.878 21.3597C132.109 21.2713 132.317 21.1389 132.491 20.9709C132.664 20.803 132.799 20.603 132.886 20.3838C132.973 20.1645 133.011 19.9306 132.997 19.6968C132.997 16.9772 130.942 13.3781 126.277 13.3781C122.222 13.3781 119.382 16.4651 119.382 20.2118V20.2523C119.382 24.2681 122.484 27.0369 126.677 27.0369C128.443 27.0853 130.167 26.5245 131.523 25.4601ZM126.077 12.325C126.495 12.3512 126.914 12.2924 127.305 12.1526C127.697 12.0128 128.051 11.7953 128.345 11.5149L129.96 10.0943C130.109 9.99098 130.233 9.85867 130.323 9.7064C130.412 9.55413 130.466 9.38547 130.48 9.21191C130.48 8.65063 129.231 8.08646 128.268 8.08646C127.964 8.08738 127.665 8.1652 127.404 8.31179C127.142 8.45837 126.928 8.66833 126.782 8.91969L125.348 11.0259C125.202 11.2218 125.113 11.4502 125.09 11.6885C125.09 12.0791 125.505 12.325 126.077 12.325Z" fill="#ffffff"></path></svg>